<?xml version="1.0" encoding="utf-8"?>
<!-- Generator: Adobe Illustrator 24.0.1, SVG Export Plug-In . SVG Version: 6.00 Build 0)  -->
<svg version="1.1" id="Calque_1" xmlns="http://www.w3.org/2000/svg" xmlns:xlink="http://www.w3.org/1999/xlink" x="0px" y="0px"
	 viewBox="0 0 1296 1102.7" style="enable-background:new 0 0 1296 1102.7;" xml:space="preserve">
<style type="text/css">
	.st0{display:none;}
	.st1{fill:#7510F7;stroke:#7510F7;stroke-miterlimit:10;}
	.st2{fill:#1E130F;stroke:#000000;stroke-miterlimit:10;}
	.st3{fill:#947562;stroke:#000000;stroke-miterlimit:10;}
	.st4{fill:#A07365;stroke:#000000;stroke-miterlimit:10;}
	.st5{fill:#44433F;stroke:#000000;stroke-miterlimit:10;}
	.st6{fill:#FFFFFF;stroke:#000000;stroke-miterlimit:10;}
	.st7{fill:#CC6600;stroke:#000000;stroke-miterlimit:10;}
	.st8{stroke:#000000;stroke-miterlimit:10;}
	.st9{fill:none;stroke:#000000;stroke-miterlimit:10;}
	.st10{fill:#975459;stroke:#000000;stroke-miterlimit:10;}
	.st11{fill:#1E130F;}
	.st12{fill:#A79283;stroke:#000000;stroke-miterlimit:10;}
	.st13{fill:#AAA29D;stroke:#000000;stroke-miterlimit:10;}
	.st14{fill:#B2B2AE;stroke:#000000;stroke-miterlimit:10;}
	.st15{fill:#B0AFAE;stroke:#000000;stroke-miterlimit:10;}
	.st16{fill:#B1B4B1;stroke:#000000;stroke-miterlimit:10;}
	.st17{fill:#B4B1AA;stroke:#000000;stroke-miterlimit:10;}
	.st18{fill:#756053;stroke:#000000;stroke-miterlimit:10;}
	.st19{fill:#B4A697;stroke:#000000;stroke-miterlimit:10;}
	.st20{fill:#B1A498;stroke:#000000;stroke-miterlimit:10;}
	.st21{fill:#B2A79E;stroke:#000000;stroke-miterlimit:10;}
	.st22{fill:#AFAAA5;stroke:#000000;stroke-miterlimit:10;}
	.st23{fill:#8D54E8;stroke:#000000;stroke-miterlimit:10;}
	.st24{fill:#FFFFFF;stroke:#FFFFFF;stroke-miterlimit:10;}
</style>
<g id="Calque_1_1_" class="st0">
</g>
<g id="Calque_3">
	<circle class="st1" cx="654.9" cy="525.1" r="491.3"/>
</g>
<g id="Calque_2_1_">
	<path class="st2" d="M591,493.7c-0.2,4.8-0.9,11.6-2.9,19.6c-2.6,9.9-3.9,14.8-8,17c-4.5,2.4-10.6-0.1-22.7-5.2
		c-6.8-2.9-5.4-2.9-20.4-10.4c-10.6-5.3-12.6-5.9-14.7-9c-2.6-3.9-2.9-8.6-3.3-18c-0.5-11.5,0.9-15.8-1.4-17
		c-2.8-1.5-6.4,3.4-17,5.7c-3.8,0.8-6.5,1.3-7.6,0c-2-2.5,2.8-9.8,8-18c4.7-7.3,5.6-7.4,5.7-9.5c0.1-6.5-9-7.9-18.5-19.9
		c-3.6-4.5-7.1-8.9-8-15.6c-0.1-0.6-1.7-12.8,6.2-21.3c5.2-5.7,9.3-4,11.8-9c4.1-7.9-2.9-18.6-3.8-19.9c-1.6-2.4-5.6-7.4-12.3-9.9
		c-6.9-2.6-9.2,0.1-18.9-1.4c-8.5-1.4-18.2-5.4-18-8.5c0.1-1.8,3.5-2.9,9-4.7c11.1-3.6,15.2-2.2,19.9-5.7c4.8-3.5,6.1-9.2,6.6-11.4
		c1.8-7.7-1.3-12.5-7.6-29.4c-4.6-12.4-6.9-18.6-7.6-24.6c-1.3-11.5,1.3-20.6,2.8-26c0.9-3.2,3-9.7,15.6-30.3
		c9.7-15.9,14.6-23.8,19.4-28.9c7.4-7.7,9.1-6.8,29.4-22.3c11.6-8.8,10.3-8.6,24.2-19.4c17-13.2,25.6-19.9,35-24.6
		c3-1.5,11.9-4.6,29.8-10.9c13.4-4.7,18.9-6.4,26.5-5.7c6.3,0.6,7,2.1,13.7,2.4c10,0.4,12.1-3,21.8-3.8c11.3-1,20.3,2.6,24.6,4.3
		c7.3,2.9,11.9,6.3,18.5,11.4c8.2,6.3,11.3,10,26,24.6c6.7,6.7,13.4,13.4,21.8,21.3c13.6,12.9,14.8,13.2,22.7,21.3
		c7.4,7.5,13,13.3,19.4,22.3c1.8,2.5,9.3,13.2,16.1,28.9c3.4,8,7.7,17.8,9.9,31.3c1,5.8,0.7,6.9,1.9,11.4
		c3.3,12.2,8.1,13.1,10.9,23.2c1,3.7,1,9.7,1,21.8c0,9.2-0.1,13.9-1.4,17.5c-3.1,8.4-7.4,8-9.5,16.1c-1.2,4.9-0.7,9.2,0,15.6
		c0.7,5.6,1,8.5,2.4,10.9c4.7,8.1,16.6,9.9,16.6,9.9c0,0-17.5-8.3-20.8-4.3c-1.8,2.2,0.9,7.7,3.3,10.9c5.2,6.7,13.5,8.4,13.3,9
		c-0.3,0.9-19-6.6-22.3-1.9c-0.8,1.1-0.3,2.2,2.4,10.9c2.4,7.8,3.6,11.7,3.8,13.3c0.7,5.6-1,7.8-3.3,17c-3.4,14-0.7,13.6-3.3,19.9
		c-3.2,7.6-8.9,12-20.4,20.8c-2.8,2.1-6.9,4.9-15.2,10.4c-11.2,7.5-14.8,9.5-16.6,10.4c-9.7,5.2-14.5,7.7-18.9,7.1
		c-11.2-1.6-16.8-18.4-17.6-20.9"/>
	<path class="st3" d="M593.5,496.4c-2.9,2.4,7.5,19,8.4,20.5c5.9,9.4,11.8,15.1,13.6,16.8c1.2,1.1,5.9,5.3,12.8,9.6
		c3.9,2.4,7,3.8,11,5.7c3.7,1.7,4.2,1.8,13.8,5.7c10.8,4.4,0.4,0.3,15.4,7.1c3.4,1.5,5.5,2.5,6.9,4.8c2,3.4,0.3,6.2,2.1,7.6
		c2,1.6,5.7-1.2,11.7-3.4c7.9-2.9,9.2-0.8,18.1-3.2c1.9-0.5,2.5-0.8,16.3-7.1c6.3-2.9,12.4-6.1,18.8-8.7c8.2-3.4,11.8-4.2,16.3-8.3
		c3-2.7,4.7-5.3,6-7.1c5.1-7.6,11.7-20.5,8.1-23.9c-1.8-1.7-4.6,0.5-9.3-1.5c-1.7-0.7-3-2.1-5.7-4.8c-3.2-3.1-4.7-4.7-5.9-7
		c-1.9-3.8-1.3-6.3-2.7-6.7c-1.6-0.5-3.7,2.6-6.2,5.5c-2.1,2.5-5.9,5.2-13.5,10.6c-5.9,4.2-11.5,8.2-19.5,12.1
		c-4.1,2-10.9,5.3-20.5,7.5c-4.3,1-13.3,2.7-24.8,2.1c-6.1-0.3-15.9-0.9-26.8-5.6c-2.5-1.1-5.4-2.5-23.9-15.5
		C598.6,498.3,594.9,495.3,593.5,496.4z"/>
	<path class="st4" d="M529,349.1c0.5,5.7,1.3,9.8,5.7,29.4c4.7,20.9,7.1,31.4,9.5,39.8c4.8,16.9,8.5,26.8,11.4,33.6
		c3.7,8.9,7.2,15.7,12.8,22.7c0.8,1,4,5,9.2,9.8c8.1,7.5,15.4,11.7,18.3,13.4c33.8,19.8,32,23.7,46.9,28.4c23.5,7.4,44.2,2.5,50.2,1
		c13.6-3.6,22.7-9.6,32.7-16.1c16.6-10.8,27-22.1,33.1-28.9c9.7-10.6,17.1-18.8,23.2-31.3c8.8-18,9.3-33.7,9.9-56.8
		c0.8-28.5,1.3-42.7-4.7-55.4c-3.1-6.6-9.9-17.4-6.2-27c1.1-2.8,3.7-7.1,1.9-9.9c-1.4-2.3-4.2-1.5-6.6-3.8
		c-3.3-3.1-1.2-7.6-2.4-11.4c-3.1-10.4-27-4.7-39.8-18c-7.3-7.6-0.5-17.3-8.5-23.7c-3.7-2.9-10-5-14.7-2.8
		c-6.1,2.8-4.4,10.5-11.7,16.3c-2.8,2.3-9.2,6-13.8,4.3c-13.1-4.8-4.4-51.6-12.4-53.3c-3.8-0.8-5.7,9.4-19.9,19.4
		c-4.9,3.4-6.6,3.6-15.2,9.5c-4.3,2.9-8.7,6-13.7,10.4c-10,8.8-15,13.2-15.6,19.4c-0.5,5,1.8,9.9,5.2,17.5c1.3,3,3.1,6.3,3.8,11.4
		c0.5,3.4,1,7-1,8.5c-2.8,2.2-9.9-0.6-14.2-5.2c-4.7-4.9-3.2-8.7-7.1-10.9c-3.9-2.2-6.7,1-15.2,1.4c-10,0.4-11-3.9-17-2.4
		c-8.2,2.1-7,10.2-17,14.7c-6.8,3-10.8,0.8-14.2,4.7c-2.7,3.1-2.5,7.1-2.4,12.3C530,341.2,527.8,336.2,529,349.1z"/>
	<path class="st5" d="M519.7,326.9c2.5-2.2,7.2,2.5,11.8,0.3c2.6-1.3,2.7-3.6,4.8-7c3.7-6.2,9.6-8.9,15.7-11.8
		c6.4-3,11.5-3.7,18.8-4.8c8-1.1,14.6-1.1,18.8-0.8c5.2,0.3,10.2,0.6,16.5,2.5c6.5,2,10.7,4.6,13.2,6.2c3.7,2.3,5.5,3.5,6.7,5.6
		c1.3,2.2,1.5,4.3,3.1,4.8c1.3,0.4,2.5-0.7,3.7-1.4c1.6-1,3-1.4,11.5-1.7c8.5-0.3,12.7-0.5,14.9-0.3c6.4,0.6,9.4,1.9,11.2,0
		c1.4-1.4,0.7-3.2,1.1-5.9c0.9-5.5,5.8-8.7,13.5-13.8c3.6-2.4,9.5-5.8,17.4-8.7c7.8-2.8,14.2-3.8,16.8-4.2c4.7-0.6,12.4-1.7,22.2,0
		c9.9,1.7,19.4,3.3,23.6,10.4c1.8,3.1,2,6.3,4.8,7.3c3.9,1.4,7.4-3.4,9.8-2c2.6,1.6,2.2,9.1-0.8,10.7c-2.6,1.4-6.5-2.1-7.6-0.8
		c-0.6,0.7,0.5,2.3,1.1,4.5c0.9,3.1,0.3,5.5-0.6,9.8c-2.1,11-0.7,9.6-2.2,14.6c-0.6,1.8-2.4,7.3-6.7,13.2c-1,1.4-4,5.3-9,9.3
		c-1.3,1.1-5.8,4.5-12.6,7.3c-4.1,1.7-15.5,6.2-30,3.6c-10.1-1.8-16.9-6-18.8-7.3c-3.2-2.1-9.3-6.7-14.3-14.6
		c-2.4-3.8-4.9-7.9-5.9-13.8c-1.2-7.5,1.1-12.2-2-14.9c-1-0.9-2.1-1.1-7.3-1.1c-10.6-0.1-17.3,0.8-19.6,1.1
		c-9.7,1.3-11.6,2.3-12.3,3.9c-0.7,1.6,0.1,2.6,0.8,6.2c1.5,7.1,0.5,13,0,16c-0.8,4.6-2.2,7.9-3.4,10.7c-0.7,1.5-3.6,8.1-7.9,13.2
		c-9.1,10.7-23.1,13-28.1,13.8c-6.1,1-19.3,2-32.8-5c-8.2-4.3-13.1-9.7-14.9-11.8c-2.5-3-7.7-9.1-9.8-18.2c-2-8.8,0.2-14.4-3.1-16.3
		c-3.3-1.9-7.4,2.7-10.7,0.6C518.3,334.4,517.7,328.7,519.7,326.9z"/>
	<path class="st4" d="M673.3,316c-0.1,1.2,0,1.2,0,2.6c-0.1,2.7-0.4,3.3-0.4,5.1c0,1,0.1,1.2,0.7,5.1c0.7,4.6,0.5,3.8,0.9,5.8
		c0.4,2.5,0.8,4.6,1.5,7.3c0.5,2,0.9,3.2,1.7,4.7c0.7,1.5,1.1,1.8,2.5,4c2.3,3.5,2,3.8,3.7,6.3c1.2,1.7,2.2,3.1,4,4.5
		c1.9,1.5,2.1,1,5,2.9c3,2,3.2,2.8,5.5,3.7c0.5,0.2,0.6,0.2,3.8,1c5.7,1.4,5.3,1.4,6.4,1.5c1.5,0.3,3.5,0.3,7.4,0.3
		c3.4,0,5.1,0.1,6.8,0c3.9-0.1,6.7-0.2,10.2-1.1c1.9-0.5,3.3-1,5.2-1.6c3.8-1.4,6.5-2.8,7.2-3.1c2.2-1.1,3.8-1.9,5.7-3.4
		c1.8-1.3,2.9-2.5,4.8-4.5c1.2-1.2,2.1-2.3,4-4.4c2.6-2.9,3.8-4.4,4.4-5.4c1-1.8,1.4-3.3,2.2-6.4c0.3-1,0.7-2.9,1.4-7.4
		c0.8-5.2,1.2-7.8,1.2-9.5c-0.1-3.8-0.8-5-0.4-9.1c0.1-1,0.2-1.8,0.2-3.1c0-3.3-0.7-5.7-0.9-6.2c-0.3-1.1-1.3-3.8-3.5-6.5
		c-2.3-2.8-4.7-4.2-6-5c-1.3-0.7-2.1-1-8.5-3.1c-4.8-1.5-7.2-2.3-7.8-2.4c-2.2-0.4-2.6-0.3-10.6-0.5c-5.9-0.2-6.1-0.3-7.9-0.2
		c-2.1,0.1-4.2,0.5-8.4,1.3c-4.2,0.8-6.3,1.2-8.7,1.9c-3.3,0.9-5.6,1.9-7.8,2.8c-3.3,1.3-5.8,2.5-7.8,3.5c-2.1,1-3.2,1.5-4.6,2.4
		c-2.9,1.7-4.8,3.3-5.2,3.6c-0.3,0.3-2,1.7-3.8,3.7c-1.8,2-2.7,3-3.2,4.3C673.5,313.1,673.4,314.8,673.3,316z"/>
	<path class="st4" d="M535.6,324.3c0.1-0.2,1.1-1.5,3.2-4.1c2.6-3.3,3-3.6,3.3-4c1.5-1.4,2.8-2.1,5.4-3.5c2.4-1.3,4.2-2,6.5-3
		c2.8-1.2,4.6-1.9,7.3-2.6c1.8-0.5,3.8-1,6.4-1.3c3.2-0.3,3.6,0.2,8,0c3-0.1,3-0.3,6.7-0.5c2.2-0.1,5-0.3,8-0.1
		c3.7,0.2,6.2,0.8,10,1.8c7.1,1.7,11.1,3.6,12.3,4.2c3,1.5,4.2,2.4,4.7,2.9c2,1.7,1.8,2.4,4.6,5.3c1.9,1.9,2.6,2.2,3.4,3.7
		c0.5,1,0.5,1.3,1.2,3.9c0.9,2.9,1,2.8,1.7,5.1c0.9,3.2,1.3,5.6,1.3,6.2c0.2,1.6,0.4,3.1,0.3,5.2c-0.1,1.9-0.4,3.3-0.8,5.4
		c-0.2,0.9-0.4,2.3-0.9,3.9c-1.2,4.3-2.9,7.5-4.5,10.5c-0.6,1.1-1.4,2.6-2.6,4.4c-1.1,1.6-2.1,3.1-3.7,4.8c-2.2,2.3-4.3,3.7-5.5,4.5
		c-0.4,0.2-1.7,1.1-3.6,2.1c-0.5,0.2-2.4,1.2-5.3,2.2c-2.3,0.8-4.6,1.6-7.7,2c-1.3,0.2-1.1,0-5.7,0.2c-4.5,0.2-4.7,0.3-7.2,0.3
		c-2.3,0-4,0-7.5-0.2c-5.2-0.3-7.8-0.4-9-0.8c-1.5-0.5-1.7-0.8-7.8-4.7c-6.5-4.2-6.8-4.3-8-5.5c-1.5-1.5-1.7-2.2-5.1-7.8
		c-5.2-8.8-5.1-8-6-10.1c-1.8-4.4-2.5-8.2-3.1-12c-0.3-2.1-0.5-3.8-0.8-7.1C534.5,327.1,535,325.5,535.6,324.3z"/>
	<path class="st6" d="M617.9,321.7c0,0.3-0.1,1.1-4,3.2c-3.4,1.8-6.3,2.8-8.6,3.5c-2.4,0.8-5.3,1.7-9.5,2.7
		c-2.6,0.6-5.5,1.3-9.4,1.8c-4.2,0.6-6.3,0.9-8.7,0.7c-1-0.1-4.2-0.5-7.8-2.3c-1-0.5-0.2-0.2-6.5-4.9c-0.3-0.3-0.8-0.6-0.9-1.2
		c-0.2-1.1,0.9-2.2,4.4-4.9c3.3-2.6,5-3.9,6.4-4.8c2.7-1.5,5-2.3,5.8-2.6c0.2,0,0.7-0.2,1.4-0.4c1-0.3,3.9-1,7.8-1.2
		c3.3-0.1,5.9,0.2,7.3,0.4c0.8,0.1,3.4,0.6,6.8,1.8c2.5,0.9,2.7,1.2,7.8,3.7C616.2,320,617.9,320.5,617.9,321.7z"/>
	<path class="st7" d="M579.6,316.1c-0.1,1.2-0.2,2-0.1,2.9c0.2,2.2,1,3.9,1.3,4.4c1.2,2.2,2.8,3.4,3.3,3.8c0.7,0.5,2.5,1.7,5.2,1.9
		c2.7,0.2,4.6-0.8,5.7-1.3c2.6-1.3,4-3.2,4.3-3.6c0.6-0.8,2-2.9,2.1-5.8c0-1.1,0-3.1-1.2-4.7c-1.3-1.7-3.9-1.9-9.2-2.4
		c-1.7-0.2-5.4-0.4-8.5,0.7c-1.1,0.4-2,1-2.5,1.9C579.7,314.4,579.7,314.9,579.6,316.1z"/>
	<path class="st8" d="M587.2,314.6c-0.9,1.1-1,2.3-1,2.8c0,0.5-0.2,2.3,1.3,3.8c1.1,1.1,2.4,1.3,2.8,1.3c0.3,0,2.1,0.2,3.6-1.2
		c1.4-1.3,1.4-3,1.4-3.5c0-0.4,0-2.3-1.4-3.6c-1-0.9-2.2-1-2.6-1.1C591,313.1,588.7,312.9,587.2,314.6z"/>
	<path class="st8" d="M562.5,325.1c-0.9,1-3.6,0.6-5.3-0.8c-0.8-0.6-1.6-1.7-1.3-2.1c0.2-0.3,0.9,0.1,2.3,0c0.7,0,1.9-0.1,2.8-0.4
		c1.4-0.5,1.7-1.3,3.4-3c1.5-1.4,2.7-2.3,4.9-3.7c2-1.3,3.6-2.1,3.9-2.3c0,0,2.8-1.4,5.7-2.3c6.9-2.1,19.3,1.1,19.2,1.5
		c0,0-0.6-0.2-0.6-0.2c-3.9-0.9-5.9-1.3-7.9-1.4c-1,0-3.8-0.1-7.3,0.6c-3.2,0.6-5.4,1.6-6.2,1.9c-1.4,0.6-2.8,1.3-4.4,2.5
		c-1.5,1.2-1.2,1.3-2.8,2.7c-1.6,1.3-2.5,1.6-4.2,3.1c-0.8,0.7-1.3,1.3-1.6,2.1C562.6,324.4,562.8,324.7,562.5,325.1z"/>
	<path class="st6" d="M683.3,314.4c-0.3-0.6,0.8-1.6,2.9-3.9c3.3-3.5,2.5-3.1,4.7-5.4c1.6-1.6,3.5-3.5,6.3-5.4
		c1.4-1,4.3-2.9,8.5-4.2c2.3-0.7,6.3-1.7,11.1-1.3c1.9,0.1,3.5,0.5,5.2,0.8c1.3,0.2,3.7,0.7,6.6,1.6c1.3,0.4,2.9,1,6,2.2
		c0.1,0,2.7,1,5.7,3c0.8,0.5,1.2,0.8,1.3,1.3c0.2,0.9-0.5,1.9-4,4.7c-2.8,2.4-4.3,3.5-5.8,4.4c-2.5,1.4-4.5,2-7.2,2.8
		c-6.5,1.9-11.7,2-12.9,2c-2.7,0-1.7-0.2-7.3-0.4c-6.9-0.3-7.9,0.1-11.3-0.5c-2.4-0.5-3.1-0.9-5.5-1.1
		C685.1,314.7,683.7,315.1,683.3,314.4z"/>
	<path class="st8" d="M741.7,303.7c0.6,0.3,1.3-1.1,3.5-2.3c1.2-0.6,2-0.8,2.5-1.6c0.1-0.1,0.7-1.1,0.3-1.5
		c-0.5-0.6-2.1,0.4-4.5,0.5c-0.9,0-1.3-0.1-5-1.2c-3.8-1.1-2.5-0.7-5.6-1.6c0,0-2.1-0.6-6.2-1.7c-0.5-0.1-1.4-0.4-2.6-0.5
		c-1-0.1-1.8-0.2-2.2-0.2c-4.8-0.2-7.2-0.3-9.6,0c-4.2,0.6-7.7,2.2-7.6,2.5c0,0.2,1.5-0.2,5.5-0.7c0.8-0.1,7.1-0.9,10.2-0.5
		c0.3,0,1,0.1,2,0.2c1.3,0.1,1.7,0.1,2.3,0.2c1.2,0.2,1.7,0.5,3,1.1c1.9,0.8,1.8,0.5,5.1,1.6c1.4,0.5,2.3,0.8,3.5,1.4
		c1.3,0.6,1,0.6,2.7,1.5c1.2,0.6,1.6,0.7,1.9,1.3C741.7,302.7,741.2,303.5,741.7,303.7z"/>
	<path class="st7" d="M704.5,297.5c-1.8,2.1-2.4,4.5-2.5,5.3c-0.1,0.8-0.4,2.1,0,3.6c0.4,1.9,1.5,3.1,1.9,3.6c0.8,1,1.6,1.5,2.9,2.3
		c1.6,1,2.5,1.7,4,2.1c2.4,0.7,4.4,0.3,5.3,0.1c2.7-0.5,4.5-1.9,5.4-2.6c1-0.9,2.9-2.7,3.3-5.4c0.3-1.5,0-3.2-0.1-4
		c-0.1-0.7-0.2-1.6-0.7-2.8c-0.5-1.4-1.3-2.6-1.8-3.2c-2.3-2.7-6.7-2.7-8.1-2.7C712.3,294,707.6,294,704.5,297.5z"/>
	<path class="st8" d="M709,299.6c-0.3,0.4-1,1.3-1.2,2.6c-0.1,0.5-0.1,1.3,0.2,2.3c0.2,0.5,0.6,1.8,2,2.5c1,0.5,1.9,0.5,2.4,0.4
		c1.6-0.1,2.7-1,3.2-1.4c0.6-0.5,1.7-1.4,2-3c0.1-0.4,0.3-1.8-0.5-3.1c-0.9-1.4-2.5-1.7-4-2c-0.7-0.1-1.3-0.2-2.1,0
		C710,298.4,709.4,299.1,709,299.6z"/>
	<path class="st9" d="M629.2,368.8c-0.3,1.6-0.8,4-1.8,6.9c-1.5,4.5-2.4,4.8-3.2,7.9c-0.5,1.8-1.8,6.6,0,12c0.6,1.7,1.5,4.3,4,6.3
		c2.4,1.9,5,2.3,6.3,2.4"/>
	<path class="st9" d="M635.7,399.4c2.3,0.5,4,1.3,5.3,2c1.3,0.7,2.7,1.8,5.5,3.9c3.3,2.5,3.6,2.9,4.7,3c1.9,0.3,2.3-0.7,5.1-0.6
		c2.4,0.1,2.7,0.9,4.5,0.6c0.8-0.1,1.8-0.4,4.3-2.4c3.2-2.6,2.9-3.2,5.3-5.1c3.3-2.6,6.1-3.3,6.7-3.4c1.3-0.3,2.5-0.4,3.2-0.4"/>
	<path class="st9" d="M682,400.2c1.3-0.4,3.7-1.4,5.9-3.4c0.8-0.7,2.7-2.5,3.8-5.5c1.8-4.5,0.6-8.6,0-10.7c-1-3.6-2.8-6.1-3.7-7.3
		c-2.2-3-3.8-3.9-6.7-7.9c-1-1.4-1.8-2.6-2.2-3.4"/>
	<path class="st10" d="M617.2,439.9c0,0.1,3.2-0.2,6.3,1.6c1.7,1,2.6,2.1,4.3,4.3c4.9,6.3,4.9,6.9,6.7,8.7c3,3,6.3,4.4,8.3,5.2
		c4.6,1.9,8.5,2,13.3,2.1c3.2,0.1,3-0.2,13.6-1c9-0.7,10.1-0.6,13-1.5c1.5-0.5,5.4-1.8,9.6-4.8c3-2.2,5.2-4.7,9.6-9.6
		c2.8-3.1,3.7-4.5,6.1-6.3c2.3-1.7,4.5-2.7,4.4-3.2c-0.2-0.4-1.9,0-3.5,0.3c-6.8,1.2-7.1-0.1-14,1.2c-10.9,2-10.2,2.7-16.4,3.6
		c-2.6,0.4-2.1,0.2-17.2,1c-10.2,0.6-11.3,0.7-14.6,0.6c-3.8-0.1-4.2-0.3-13.6-1.2C619.5,439.6,617.2,439.8,617.2,439.9z"/>
	<path class="st10" d="M617.7,439.5c-0.1-1.3,8.8-0.4,18.1-6.6c4.1-2.8,6.6-5.5,10.7-5.5c0.8,0,2.7,0.7,6.7,2
		c4.4,1.5,5.4,2.1,7.3,1.8c1.2-0.2,1.2-0.5,5.1-2.4c3.2-1.6,4.8-2.4,6.3-2.6c2.9-0.5,5.3,0.5,7.3,1.2c0,0,2,0.8,17.5,5.3
		c8.5,2.5,14.1,2.3,14.1,2.9c0,0.7-8.7-0.3-21.3,2.4c-4,0.9-3.4,1.1-7.2,1.8c-7,1.4-9.1,0.9-21.1,1.7c-8.2,0.6-9.1,0.7-13,0.6
		c-4-0.1-5.7-0.4-11.3-0.9C623.1,440,617.8,440.4,617.7,439.5z"/>
	<path class="st11" d="M684.8,281.2c2.5,1,4.8,0.6,6.1,0.3c1.8-0.4,2.9-1,5.1-2.2c1.8-1,5.5-2.9,7.8-3.9c3.7-1.6,3.9-0.7,10.3-2.3
		c4.1-1,3.6-1.3,11.3-3.8c6-1.9,7.7-2.2,7.7-2.9c0-1.1-4.4-2.3-8.7-1.9c-2.2,0.2-2.6,0.7-6.5,1.9c-2.8,0.8-2.9,0.7-10.1,2.3
		c-6.7,1.5-5.7,1.4-9.8,2.3c-5.4,1.1-6.8,1.2-9.7,2.3c-2.7,1-6.8,2.6-6.8,4.6C681.3,279.7,684.2,280.9,684.8,281.2z"/>
	<path class="st9" d="M632.3,315.6c-0.5-1.6-1.4-3.8-2.6-6.3c-1.1-2.3-2.4-5-4.7-8.1c-1.1-1.5-2.8-3.5-5.1-5.5"/>
	<path class="st9" d="M667.5,313.8c0.1-2.3,0.4-5.2,1.2-8.3c0.3-1.3,1.2-4.2,3-7.7c1.1-2.1,2.2-3.9,3.2-5.1"/>
	<path class="st12" d="M981.6,834.3c-20.8,0-41.6,0-62.5,0c-25.5,0-51.2-1.7-76.7,0c-8.8,0.6-17.7-0.5-26.5,0
		c-9.2,0.5-15,1.3-17.3-2c-1.7-2.5,0.3-4.7,1-15c0.5-6.4-0.2-7,0.3-12.6c0.6-6.2,1.8-10.7,2.9-14.5c4.4-15.4,7.5-25.3,9.3-31.8
		c4.9-17.1,3.8-16.9,7.6-27.7c2.4-6.7,4.8-13.6,9.5-22.1c4.9-8.8,6.8-9.4,12.2-19.2c5.5-10,3.8-9.8,8.5-18
		c6.9-12,11.2-13.5,13.1-22.2c1.5-6.8,0.3-12.3,0-13.5c-1.8-7.7-5.2-8-9.2-16.8c-2.1-4.5-3-10.3-4.9-21.7c-2-12.5-1.3-14.1-0.3-15.1
		c1.9-1.8,5-1.4,18,2.1c11.5,3.1,17.3,4.6,18.4,5.3c13.8,7.6,8.4,20.9,20.8,30.4c10.7,8.2,18,0.7,35.5,10.4
		c4.8,2.7,4.2,3.2,17.5,13.5c20.8,16.1,20.2,13.2,25.2,18.4c6.8,7.2,11.3,22.3,20.3,52.7c1.4,4.7,3.3,11.3,5.3,19.5
		c1.4,5.6,3.2,13.2,4.8,22.5c1.1,6.5,1.8,13.2,3.2,26.4c3.2,30.3,1.5,23.4,2.8,31c1.7,9.6,4,18,0.7,20c-0.9,0.6-1.7,0.3-5,0
		c-3.9-0.3-7.9,0-11.8,0C996.8,834.3,989.2,834.3,981.6,834.3z"/>
	<path class="st13" d="M281.6,834.3c-2-2.5,1.1-6.2,3-15.2c1.4-7,0.3-8.7,0.9-16.3c0.7-8.8,3-15.3,7.6-28.2c2.5-7,4.6-11.9,8.7-21.5
		c5-11.7,6.4-14,9.4-21.8c3-7.8,3-9.1,6.4-19.5c5-15.1,6.2-15.6,14-36.9c5.5-15,5.5-16.3,8.5-22.2c4.5-9,9.7-16.3,13.1-20.6
		c6.8-8.8,7.3-7.3,11.9-14c8-11.6,6.7-16.6,13.1-20.2c0.6-0.3,0.6-0.3,15.1-3c10.1-1.9-0.7,0.1,14.3-2.8c9.4-1.8,10.8-2,13.1-3.4
		c3.8-2.3,3.7-4,8.1-7.1c0.4-0.3,4.6-3.1,10-4.5c6.5-1.7,9.7-0.1,19.5,0.8c9,0.8,7.4-0.5,18.9,0.2c15.5,0.9,19.8,3.2,21.8,4.5
		c5,3.2,3.9,5,8.1,7.2c8.6,4.5,19.4,0.3,25.6-2.2c8.8-3.5,8.3-5.7,17.4-8.7c9.2-3.1,10.6-1,15-4c6.7-4.6,5-10.2,12.7-16.2
		c1.9-1.5,7.6-5.9,11.9-4.1c3.2,1.3,2.1,4.7,6.2,11.8c1.2,2.1,6,10.5,14.3,14.3c0.5,0.2,2.3,1,5,2.3c6.4,3,7.5,3.8,8,5
		c0.9,2-0.2,3.4-0.7,6.6c-0.7,4.8,1,8.2,2.4,12c1.1,3.3,1,3.9,3.1,19.7c4.8,35.2,6.2,35.8,6.7,49.3c0.4,10.3-0.4,11.5,0.2,24.9
		c0.5,11.6,1.5,19,2.1,24.4c3.5,34.3-4.2,44.7-2.3,71.5c0.4,5.3,1.4,15.7-1.6,22.7c-1,2.4-2.9,5.3-3.2,10c-0.2,2.7,0.3,4.2-0.7,5.4
		c-1.8,1.9-5.7,0.6-9.5,0c-5.7-1-11.5,0-17.2,0c-9.5,0-18.9,0-28.4,0c-34.8,0-69.6,0-104.5,0c-38.9,0-77.8,0-116.6,0
		c-13.2,0-26.4,0-39.5,0c-10.5,0-15.7,0-15.7,0C287.5,835,283.5,836.6,281.6,834.3z"/>
	<path class="st14" d="M677.4,574.2c1.7,4.8,1.3,8.2,0.6,10.4c-0.9,3.2-3,5.8-3.3,10.8c-0.1,1.8,0.1,2.5,0.6,3
		c1.7,1.6,5-1.3,7.8,0.3c1.7,1,2.3,3,2.7,4.5c0.3,1.2,1,3.6-0.3,5.7c-0.3,0.5-1,1.5-2.4,2.1c-3.6,1.5-7-2.5-9-1.2
		c-0.9,0.6-0.5,1.8-0.9,6.9c-0.4,4.9-0.9,5.3-0.6,7.5c0.4,2.7,1.5,3.7,2.9,6.6c1.2,2.5,1.9,5.3,3.2,10.7c1.4,5.8,1.8,8.9,3,14.8
		c1.7,9,2.6,13.5,3.9,18.3c2.1,7.8,3,8.7,4.8,16.2c1.5,6.3,2.2,11,2.4,12.6c2.6,17.6,11.1,39.8,14.7,60.1
		c6.1,34.2-0.6,69.4,5.6,70.7c1.1,0.2,3-0.5,7.5,0c3,0.3,4.4,0.8,5.2,0c1-1-0.2-2.4,0-6.2c0.1-1.8,0.4-2,1-5.2c0,0,0.4-2.5,0.8-6.3
		c1-11,0.6-23.8,0.6-23.8c0-0.7,0.4-10.6,1.1-30.2c0.6-16.5,0.9-22.7,0.1-30.8c-0.2-1.6-0.5-4.3-0.7-8.2c-0.5-8.5-0.1-14.8,0.1-17.2
		c0.6-11.1,0.7-22.1,1.1-33.2c1.3-36.7,0.6-32,1-34.9c0,0,1.1-9.3,0.1-14.9c-0.1-0.4-0.5-2.9-1-6.3c-0.3-1.9-0.4-2.8-0.5-3.1
		c-0.4-5.1,1.5-8.5,0.4-9.1c-0.2-0.1-0.3,0-1.1,0.1c-0.1,0-1.3-0.1-3.5,0.4c-3.9,0.8-5,0.5-11.1,1c-10.2,0.8-10.3,2-15.9,2
		c-4.9-0.1-10.1-1.5-11.9-2"/>
	<path class="st15" d="M686.3,605.4c1.1,3.2,9.9,3,12.5,3c4.2,0,5-0.6,11.7-1.5c6.9-0.9,7-0.5,15.6-1.5c7.3-0.9,11-1.3,14.1-2.4
		c1.1-0.4,5.4-2,12.6-7.8c9.4-7.6,15.2-15.3,17.1-18c3.8-5.2,2.5-4.6,12.3-20.7c4.3-7,4.9-7.8,6-10.2c2.5-5.6,8.1-16.9,3.9-22
		c-2.1-2.6-4.4-0.8-7.7-4c-4.2-4-2.9-9-6.2-10.1c-2.2-0.7-5.3,0.8-5.7,2.5c-0.3,1.1,0.8,1.7,1,3.6c0.2,1.6-0.3,2.8-0.9,4.2
		c-2.1,5.1-3.2,7.7-3.8,8.7c-7.1,12.1-15.5,18.1-15.5,18.1c-5.9,4.2-5,1.5-21.4,9.3c-0.2,0.1-6,2.8-17.6,8.2
		c-3.4,1.6-6.2,2.9-10.3,3.7c-4.7,0.9-4.9,0-9.5,1c-5.8,1.3-5.5,2.8-11.6,4.1c-2.8,0.6-4.5,0.6-5.5,2.1c-0.7,1-0.7,2.5-0.6,5.5
		c0.1,3.7,0.6,3.8,0.3,5.6c-0.4,2.5-1.3,2.6-2.1,5.5c-0.5,1.8-1.3,5,0.1,6.3c1.7,1.6,4.8-1.5,7.8,0.3c2.1,1.2,2.8,3.9,2.9,4.1
		C686.4,604.2,686,604.6,686.3,605.4z"/>
	<path class="st16" d="M580.1,530.3c-1.5,4.3,2,7.5,6.6,17c4.2,8.6,2.7,8.7,6,14.4c2.7,4.5,5.6,7.4,11.4,13.2
		c10.1,10,14.9,11.7,16.8,12.3c2.2,0.7,3.9,0.9,7.2,1.2c9.8,1,17.5,0.4,22.8,0c18.4-1.4,23.8,1.9,26.3-1.9c1.2-1.9,0.8-5.4,0.1-12.4
		c-0.5-4.7-1.3-6.4-2.1-7.6c-2.2-3.2-5.7-4.4-6.9-4.8c-10.1-3.5-29.4-12.7-35.2-15.8c0,0-15.5-8.2-31.4-29.2
		c-2.3-3-4.7-6.3-6.3-11.2c-1.6-5.2-1.4-9.2-2.1-9.2c-0.8,0-1.3,5.1-3.6,14.3c-2.4,9.6-4,12.3-5.4,14.3
		C582,528.5,580.8,528.1,580.1,530.3z"/>
	<path class="st17" d="M623.2,587.9c-2.3,1.7-0.5,7,1.7,18.7c0.3,1.9,0.5,3.8,1.1,7.4c0.6,4,1.1,7.1,1.3,8.3
		c0.1,0.7,2.6,15.6,3.6,21.9c1.3,8,2.3,14.5,3,21.3c1.9,17.5-0.2,18.3,1.2,38.8c1,14.5,2.2,16.7,1.8,27c-0.3,8-1.1,8.7-1.8,19.5
		c-0.3,4.7-0.2,6.2-0.3,26.1c0,12.5-0.1,17-0.3,23.4c-0.4,10.4-0.8,14.6-1.5,18.6c-1.4,8.3-5.9,13.5-3.9,15.4c0.8,0.8,2,0.3,6.7,0
		c2.8-0.2,5.7,0,8.5,0c15.3,0,23,0,23,0c12.1,0.1,24.3-1.3,36.3,0c1.8,0.2,7.4,0.9,8.2-1c0.2-0.6-0.4-1.1-1-2.8
		c-0.5-1.5-0.5-2.6-0.5-4.4c0-2.3-0.2-4.7-0.2-7c0.2-5.2,0.1-10.3,0.1-15.5c0,0,0.1-6.3-0.5-19c-0.8-18.6-5.4-35-10.5-53.5
		c-2-7.3-3-10-4.5-16.8c-2.7-12.3-1.9-13.7-4.5-23.5c-2.2-8.3-3.3-9.1-5.2-17.6c-1.3-5.7-1.1-6.7-2.6-12.8
		c-2.1-8.4-2.5-8.6-3.2-12.6c-1-6.2-0.4-7.8-2-12.1c-2.9-8-3.8-8.9-3.8-8.9c-0.3-0.8-0.9-2-1.1-3.7c-0.2-2,0.3-3.2,0.7-5.1
		c1.2-5.4-0.5-7.5,0.9-8.4c2.2-1.5,5.7,2.8,9,1.2c2.8-1.3,3.1-5.5,3.1-5.7c0.2-2.5-0.9-5.5-3.1-6.7c-3-1.6-6.1,1.3-7.8-0.3
		c-1.7-1.6-0.2-6-0.1-6.3c0.8-2.3,2-3.1,1.6-3.8c-0.6-1.2-4.8-0.2-6.4,0.1c-2,0.5-0.2-0.1-25,0.4c-11.9,0.2-12.8,0.4-15.5-0.2
		C626.1,587.9,624.5,586.9,623.2,587.9z"/>
	<path class="st9" d="M437.1,834.3c-0.1-2.9-0.4-19.5-0.4-21.9c-0.1-7.8-0.2-11.7,0-14.5c0.8-10.2,3.1-13.5,4.7-23
		c1.7-10-0.3-9.5,0.9-21.3c1.7-17,6-19.2,6.8-35.3c0.3-5.5-0.3-3.5-0.4-17c-0.1-13,0.5-16.7-1.7-22.5c-1.8-4.8-3.2-4.9-6.4-11.5
		c-3.2-6.7-4.8-12.6-5.5-16.6"/>
	<path class="st9" d="M893.9,834.3c1.2-3,2.9-7.5,4.7-13c3.1-9.6,2.8-11.2,5.1-17.8c1.5-4.5,4.3-10.1,9.8-21.3
		c4-8.2,6.1-12.3,8.5-16.2c3.9-6.2,7.8-10.9,10.6-14"/>
	<path class="st18" d="M890.8,768.2c10.8-25.2,21-39.1,23.7-42.6c4.3-5.7,11.6-15.4,23.7-25.5c12.9-11,21-17.8,34.1-21.8
		c6.6-2,12.2-2.6,12.8-5.7c1-5.1-12.6-11.5-14.2-12.3c-4.4-2.2-10.4-5.3-16.5-3.4c-2.3,0.7-4.5,2.1-11,11
		c-6.8,9.3-8.6,13.5-15.7,24.2c-5.4,8.2-5.6,7.7-8.9,13.2c-2.7,4.6-4.1,7.4-9.8,19.1c-5.8,11.9-8.7,17.9-9.3,19.1
		c-4.2,7.8-8.8,15-12.8,21.3c-0.5,0.7-1.8,2.6-3.3,5.2c-0.7,1.1-3.2,5.3-4.8,8.8c-0.5,1.1-1.2,3.1-3.8,15.3
		c-1.3,6.1-2.1,10.5-2.5,13.6c-0.6,3.8-1.1,7.5-1.3,11.9c-0.2,3.9-0.3,5.9,0,6C872.4,825.9,877.6,798.8,890.8,768.2z"/>
	<path class="st9" d="M880.3,834.3c1.1-2.5,2.9-6.3,5.1-10.9c3.7-7.7,4.5-8.8,6.4-13.2c0.5-1.2,2.9-7,4.7-14.9c2-9,1.1-11,0-11.9
		c-1.3-1.2-3.3-1.1-4.7-0.8"/>
	<path class="st9" d="M888.4,796.7c-1.1-1.5-3.8-2-5.5-1.3c-1.6,0.7-2.5,2.4-4.3,10.6c-1.5,7.2-2.3,10.8-1.7,11
		C879.1,818.2,891.9,801.7,888.4,796.7z"/>
	<path class="st19" d="M784.6,834.3c0.2,0,0.4,0.1,0.7,0c1.1-0.4,1-3.3,1-4.5c0-0.1,0.7-3.2,2.1-9.4c3.3-14.5,3.7-15.8,4.3-19.3
		c3.3-18.2-0.6-19.4,3.1-31.7c2.6-8.7,4.8-8.9,5.9-16.5c1.1-7.9-0.8-10.5,1.6-18c1.1-3.6,2-4.4,4.3-10.9c1.2-3.4,2.1-6.3,3.1-10
		c4.2-15.2,7-29.6,7.2-30.5c2.1-11.1,1.8-11.8,3.4-17.7c2.3-8.4,3.5-8.6,5.9-16.8c2.2-7.6,3.1-13.7,4.3-23c1.4-10,2.2-18.3,2.2-18.3
		c1-10.6,0.9-14.1,3.7-18.2c3.1-4.7,8.8-8.6,11.3-7.2c2.5,1.5-0.5,7.1,0.5,19c0.4,4.8,1,11.2,4.7,17.8c2.8,5.1,4.5,5.1,6.8,9.8
		c3.6,7.2,3.1,14.2,3,16.6c-0.8,11.5-7.2,13.2-17,32.3c-6.4,12.5-4.7,13.9-10.6,22.5c-5.3,7.7-8.2,8.9-11.9,16.6
		c-1.7,3.5-2,5.3-5.5,18.3c-0.1,0.5-3.2,12-5.1,18.7c-4.6,16.5-5.7,17.5-8.9,29.8c-2.8,10.9-4.2,16.3-4.7,21.3
		c-1.3,14.4,1.6,27.2-2.8,29c-0.6,0.2-2.4,0.4-6.1,0.6c-2.7,0.2-4,0.3-4.4,0c-3.1-1.8,1.3-14.5,3-20c4.3-14,0.5-11.9,5-40.7
		c1.9-12,3.9-24.4,9-39.9c3.1-9.5,3.6-8.6,6.6-18c5-15.5,4.3-19.9,8.7-37.9c5.9-24.4,8.4-21.7,10.1-36.1c1-8,1.7-21.2,4-29.3
		c0.2-0.6,1.3-4.4,2-9.6c0.5-3,0.7-4.5,0.6-6.6c-0.1-3.7-0.8-4.7-0.2-6.3c0.5-1.3,2-3.1,6.6-4.1"/>
	<path class="st9" d="M875.6,617.8c-1.5,2.6-3.5,6.7-4.3,11.9c-0.8,5.2,0.4,6.3-0.4,11.9c-0.2,1.3-0.2,0.9-4.3,14
		c-0.1,0.2-1.9,6.2-3.4,10.2c-0.9,2.4-1.9,4.7-1.9,4.7s-0.3,0.8-0.7,1.7c-1.7,3.9-5.2,10.5-5.5,11"/>
	<path class="st9" d="M863.3,679.8c0.2,1.9,0.3,5-0.4,8.5c-1,5.1-2.9,7.5-4.7,11.9c-2.5,6.2-2.8,11.5-3,14.5
		c-0.1,1.9-0.2,4.9,3,20.4c2.7,13.1,3,12.7,3.4,17c0.4,4.4,0,5.5,0,18.3c0,11.5,0.2,13.4,1.7,14.5c4.1,2.8,13.4-4.4,15.3-6"/>
	<path class="st9" d="M840.3,719.3c-1.7,3.3-5.5,11-8.5,19.1c-1.4,3.8-2.3,6.9-3,10.2c-0.5,2.3-0.7,4.2-0.8,5.5"/>
	<path class="st9" d="M821.2,744c-0.1,2.6-0.1,6.3,0.4,10.6c0.2,1.8,1,8.1,4.3,17.4c3.5,10.1,5,9.5,7.2,17.4
		c2.6,8.9,0.9,10.1,3.4,14.9c3.2,5.9,7.7,7.5,14.5,12.3c4.8,3.4,11.4,8.9,18.3,17.7"/>
	<path class="st20" d="M731.3,604.7c-4.1,3-1.2,12.2-0.2,20.3c0.1,0.7-0.2,11.1-0.8,31.9c-0.4,14.7-0.6,29.5-1.3,44.2
		c-0.4,8.7-0.6,12.7-0.4,19.5c0.4,11.4,1.5,13.3,1.7,23.4c0.2,7.3-0.4,6.9-1.3,23.8c-0.5,10.9-0.7,19.9-0.8,25.1
		c-0.2,9.2-0.1,12.7-0.3,17.6c-0.1,2.9-0.1,4.3-0.2,4.9c-0.8,10.8-3.8,17.9-1.9,19c0.2,0.1,0.2,0,2.4,0c1.2,0,2.3,0,3.5,0
		c8.7,0,17.3,0,25.9,0c5.6,0,11.2-0.2,16.8,0c0.5,0,1.6,0,3.9,0c5.4,0,5.9-0.1,6.5-0.5c1.3-0.9,1.1-2.3,2-7c0.4-2.2,1.1-4.3,1.6-6.5
		c3.2-14.4,4-16.1,4.8-22c0.4-2.6,0.8-6.3,1-11.2c0.2-5.8-0.4-6.1,0-10c0.2-1.9,0.8-6.7,3.2-12.2c1.1-2.6,1.6-3,2.6-5.7
		c0.9-2.3,1.5-4.8,2-8.2c1.1-7.8,0-9.3,0.8-14.3c0.6-3.5,1.1-2.4,4.2-10.9c2.2-6,3.5-10.9,4.5-14.2c1-3.5,1.7-6.3,2.4-9.5
		c1.2-4.8,1.9-8.3,2.1-9.2c1.1-5.2,1.9-9.3,3.1-16c1.4-7.5,1.5-8.5,2.2-11.1c1.2-4.2,2.1-6.1,3.5-9.8c3.5-9.4,4.9-17.4,5.7-22.2
		c1-5.6,1.6-11.5,1.9-14.2c0.4-4,0.4-4.3,0.8-7.3c0.3-2.4,0.7-5.3,2-13c1.1-6.5,1.5-8.8,0.5-9.5c-1-0.6-2,1.2-4.8,1.8
		c-1.6,0.3-3,0.1-10.9-2.9c-4.8-1.9-5.6-2.3-7.2-2c-3.2,0.7-3.4,3.6-5.5,3.7c-4.1,0.3-4.5-10.3-13.2-15.3c-5.2-3-9.7-4.2-9.7-4.2
		c-1.5-0.4-3.3-0.8-5.4-2.2c-1.3-0.9-1.5-1.4-2.2-1.4c-2-0.1-3.1,4.3-5.4,7.8c-3.7,5.7-7.3,9.5-10.2,12.5c-5.2,5.4-9.7,8.6-11,9.6
		c-4.3,3.1-6.9,4.9-10.8,5.9C734.5,604.5,733.2,603.4,731.3,604.7z"/>
	<path class="st9" d="M740.7,610.4c1.5-0.3,2.4-0.4,3.6-0.2c0.6,0.1,2,0.4,3.3,1.6c0.3,0.2,1.6,1.4,2,3.4c0.4,1.6-0.1,3-1.1,5.8
		c-1,2.8-1.5,4.2-3,5.1c-0.6,0.3-1.4,0.5-3,0.7c-3,0.5-4.5,0.7-5.6,0.2c-2-1-2.7-3.3-3-4.1c-0.5-1.6-0.3-3,0-4.6
		c0.3-1.8,0.9-3.2,1.2-3.9c0.7-1.4,1.1-2.3,2.1-3C738.2,610.8,739,610.7,740.7,610.4z"/>
	<path class="st9" d="M843.1,589.9c0,2.8,0,7,0,12.1c0,11.6-0.1,11.7,0,14.3c0.1,5.1,0.4,6.9,1.2,18.7c0.4,5.7,0.7,10.4,0.9,13.4"/>
	<path class="st9" d="M829.4,653.4c-0.8,3.3-1.8,8.4-2.5,14.6c-0.8,6.8-0.4,7.6-1.2,15.2c-0.7,6.6-1.1,6.8-2.5,17.4
		c-0.6,4.5-0.9,7.3-1.2,11.2c-0.4,5.4-0.5,9.8-0.5,13"/>
	<path class="st21" d="M776.2,566.6c0.3,1.6,2.7,2.3,7.1,4.1c5.9,2.4,6.8,2.3,9.3,3.7c2.8,1.6,4.4,3.6,6.5,6.2
		c4.8,5.9,4.9,9.7,7.5,10c2.7,0.3,3.3-3.6,7.2-4c2.3-0.3,2.6,1,9.6,3.7c3.9,1.5,5.2,1.7,6.5,1.6c2-0.1,3.4-0.8,5.6-1.9
		c1.4-0.7,2.1-1.1,6.2-3.7c3.1-2,4.7-3,5-3.1c0.3-0.2,4.1-2,8.4-2.2c4.3-0.2,5,1.6,11.5,3.4c8,2.3,10.2,0.6,15.5,3.4
		c3.4,1.8,5.5,4.1,6.5,5.3c6.3,7.1,3.8,12.2,8.1,19c4.8,7.5,13.5,10.2,21.8,12.8c8.5,2.6,8.7,0.7,15.9,2.8
		c11,3.3,14.9,9.2,30.8,21.5c8.6,6.6,18,14.1,18.8,13.3c0.5-0.5-3.1-3.8-6.9-9.6c-1.2-1.9-2.5-4.1-8.6-18.8c-4-9.5-3.7-9.3-4.7-11
		c-3.8-6.9-8-11.6-11-14.8c-3.8-4.1-7-6.8-10.7-9.9c-4.2-3.5-10.1-8.5-17.5-13c-10.3-6.2-20.1-8.8-39.8-14c-7.5-2-10.2-2.3-13-2
		c-3.2,0.4-4.7,0.4-7.5,0.4c-1.5,0-3,0-5-0.6c-2-0.6-3.1-0.9-3.8-1.8c-1.3-1.8,0.3-3.8,0.1-7.9c0-0.9-0.1-3.8-1.5-6.4
		c-0.5-1-1.7-2.3-9.2-6.5c-2-1.1-5-2.5-10.9-5.2c-2.7-1.2-3.4-1.4-5.1-2.3c-3.6-1.9-4.5-2.9-7.4-4.7c-2.7-1.6-5-2.5-9.8-4.4
		c-3.4-1.3-5.6-2-10-3.3c-6.1-1.8-8.2-2.1-8.8-1.3c-0.5,0.7,0.5,1.7,0.7,4.2c0,1.2-0.1,2.2-0.6,4c-1,3.7-2.5,7.2-3.5,9.5
		c-4.3,7.9-6.6,11.9-7.9,14.1c-1,1.6-1.9,3.3-2.9,4.9C776.8,565.1,776.1,565.6,776.2,566.6z"/>
	<path class="st22" d="M588.5,551.8c-0.7,3.2-5.7,2.3-10.8,6.7c-3.5,3-2.4,4.3-7.2,10.3c-2.5,3.1-4.5,5.7-8.1,7.5
		c-4.5,2.2-6.3,0.5-12.4,2.5c-2.3,0.8-1.7,0.9-9,4.7c-9.8,5.1-12.8,5.9-14.3,6.2c-3.1,0.7-5.5,0.8-8.1,0.9
		c-5.6,0.3-8.5,0.4-11.5-0.9c-4.3-1.9-3.4-4.2-8.1-7.2c-2.9-1.8-6.2-2.3-12.8-3.4c-5.3-0.9-9.5-1.1-11.5-1.2
		c-8.9-0.5-9.5,0.6-16.5,0c-7.1-0.6-7.3-1.8-12.8-1.6c-2.6,0.1-6.9,0.3-11.8,2.5c-3.8,1.7-6.6,4-8.1,5.3c-3,2.5-3,3.3-5,4.7
		c-3.2,2.3-6.2,2.5-10.9,3.1c-5.5,0.8-11,2.1-16.5,3.1c-10,1.8-14.3,4.3-15.1,3c-0.7-1.1,1.4-3.2,4.7-7.5c5.2-6.8,5-8,9.1-13.7
		c5.6-7.7,11.2-15.4,21-20.3c7.4-3.7,14.4-4.4,17.2-4.6c6.6-0.6,7.3,0.7,17.5,0.6c2.6,0,2.8-0.1,17.8-1.2c11.1-0.8,10.6-0.7,14.1-1
		c11.6-1,17.5-1.5,21.3-3c6.1-2.3,5.4-4,13.8-8.6c4.8-2.6,10-4.3,20.4-7.8c18.3-6.1,22-5.8,24.6-4.7c2,0.9,3.9,1.6,7.8,3.1
		c3.5,1.4,4.5,1.7,5.9,1.8c3.1,0.2,4.3-1,5.7-0.2c1.4,0.9,0.9,2.5,2,5.9c0.8,2.5,1.3,2.3,4.6,8.6C587.7,549,588.7,550.9,588.5,551.8
		z"/>
	<path class="st9" d="M516.9,596.1c-0.3,3.1-0.5,7.7,0,13.4c0.6,7.6,1.9,10.2,3.6,18.5c1.1,5.4,1.7,12.3,3.1,26.2
		c1.2,12.2,1,13.4,2.1,18c1.7,7.3,3,8.2,6.2,17.5c4.1,12,3.2,14.5,7.2,27.8c1.3,4.3,3.4,10.7,6.7,18.5"/>
	<path class="st9" d="M552.4,588.9c0.4,2.9,0.6,7.5-0.5,12.8c-1.5,7-4.1,9.3-4.6,14.9c-0.5,5.6,1.7,7.6,3.6,14.4
		c1.3,4.5,1.1,6.3,0.5,28.8c-0.2,7.7-0.3,15.4-0.5,23.1c-0.3,10.2-0.4,18.4-0.5,23.7"/>
	<path class="st9" d="M480.4,618.2c2.8,9.4,4.5,17.5,5.7,23.7c3,16.4,1.4,18.1,4.6,28.8c3.3,11.2,6.1,12.9,7.2,22.6
		c0.5,4.4-0.1,4.5,0.5,15.9c0.5,8.9,0.7,13.4,1.5,17c1.8,7.5,3.9,8.6,4.6,15.4c0.3,2.5,0.4,6.6-0.5,11.3c-1,5-2.1,5-6.7,16.5
		c-2.3,5.8-3.2,8.7-3.6,12.3c-0.3,3.3-0.1,6,0,7.2c0.3,3.1,0.9,4.8,2.1,8.7c2.8,9.8,2,9.4,3.6,13.4c2,5.1,3.2,5.2,5.1,9.8
		c1.6,3.7,2.8,8.2,3.1,13.5"/>
	<path class="st9" d="M599.7,612c1.2,2.8,2.8,6.5,4.6,10.8c4.3,10.1,4.7,11.1,5.1,12.8c1.4,5.6,0.2,6.1,1,16.5
		c0.6,7.6,1.3,8.2,2.1,15.9c0.2,2.4,0.6,6.9,0.5,16.5c-0.1,17.6-1.3,17-1,26.7c0.5,16.2,3.9,17.9,2.1,29.3c-0.9,5.4-2,7.4-2.6,13.9
		c-0.3,3.5,0,4.7,1,18.5c0.8,11.5,0.9,13.7,0.5,17c-0.2,1.5-0.3,1.6-2.1,10.8c-1.6,8.2-2.4,12.3-2.6,13.4
		c-0.6,4.6-0.8,11.4,1.5,20.2"/>
	<path class="st9" d="M360.6,681c1.6,4.8,3.7,10.5,6.7,17c1.6,3.4,4.2,9,8.2,15.4c6.2,9.9,7.9,9.4,13.4,18c1.9,2.9,1.7,3,9.8,20
		c7.6,16,8,16.5,8.7,19.5c1.9,8.3,0.1,10.9,1.5,21.6c1,7.5,2.8,13.3,4.1,17"/>
	<path class="st18" d="M1008.1,755.8c-0.6-0.1-0.8,6.7-4.3,17c-0.4,1.3-3.3,9.8-8,18c-10.5,18-24.7,24.9-23.7,26.5
		c0.9,1.4,13.5-2.6,22.7-12.8c6.3-7,8.6-14.3,10.4-19.9C1010,769.8,1008.9,755.9,1008.1,755.8z"/>
	<path class="st18" d="M916.8,631.9c-6.1,4.8-5.3,12.6-7.6,24.1c-3.2,16-9.3,24-7.6,25.1c2.1,1.2,10.9-10.3,12.8-12.8
		c6.2-8.1,11-14.5,11.8-23.7c0.5-5,0-13.4-3.8-14.7C920.2,629.2,917.6,631.3,916.8,631.9z"/>
	<path class="st23" d="M844.4,430.3c1.5-0.4,4.1,4.5,5.3,8.2c0.7,2.1,1.9,6.4,0.8,11.3c-1.3,5.7-5.1,5.6-6.7,11
		c-1.8,6.2,2.8,8.1,2,14.9c-0.5,4.4-2.6,4.9-11.3,16.8c-6.4,8.8-5.7,9-9.8,13.7c-6.2,7-8.3,5.4-14.1,12.1c-3.9,4.6-5,7.6-8.8,8.5
		c-3.6,0.9-7.4-0.7-8.8-1.3c-0.6-0.3-2.8-1.2-5.6-3.6c-2.2-1.9-7.6-6.5-7.5-10.6c0.1-4.5,6.6-6.6,18.8-13.4c0,0,16.2-9,30.8-22.6
		c3.9-3.6,6.6-6.6,8.1-10.9c1.6-4.4,0.3-5.4,2.1-14.4c1.1-5.6,1.7-5.5,2.7-11C843.5,433.2,843.3,430.6,844.4,430.3z"/>
	<path class="st23" d="M464.7,355.1c-0.6,2.8,6.5,7.4,7.2,7.8c3,1.9,4.8,2.1,6,4.2c1.6,2.9,0.4,6.3,0.3,6.6
		c-1.6,4.2-6.4,5.8-9.5,6.9c-6.9,2.3-10.1,0.5-13.1,3.6c-0.2,0.2-2.6,2.7-2.4,6.3c0.3,4.4,4.5,6.9,5.4,7.5c3.1,1.9,6.5,2,9.9,2.1
		c2.3,0.1,2-0.2,3.3,0c5.2,0.7,7,4.8,9,4.1c1.6-0.5,0.6-3.2,2.5-7.1c1.7-3.6,4.6-5.8,8.5-8.7c4.1-3.1,5.3-2.9,6.6-5
		c1.8-2.9,1.3-6.2,1-8.8c-1-7-4.9-11.6-6.5-13.4c-1.7-2-5-5.8-10.6-7.7C474.5,350.6,465.4,352.2,464.7,355.1z"/>
	<path class="st23" d="M498.3,476.8c-1.2,2.6,3.3,5,3.7,11.7c0.1,2.6-0.4,4.6-0.6,5.4c-1.5,5.1-4.5,5.7-7.8,11.3
		c-1.1,1.9-4,6.9-2.4,8.6c1.6,1.8,5.9-1.9,12.5-0.3c1.6,0.4,3.8,0.9,5.7,2.7c3.3,3.1,1.9,6.5,5.1,14c2.4,5.5,4.2,6,4.6,6.2
		c2.1,0.5,3.7-1.2,6.4-2.9c2.9-1.8,7-2.8,15.3-4.7c10.7-2.4,14.2-1.9,14.5-3.4c0.1-0.5-0.1-2-16.1-9.6c-10.9-5.2-14.3-6.1-17-10.2
		c-1.9-2.9-2.3-5.8-3-11.6c-1.7-13.9,1.4-21.9-1.8-23.5c-1.5-0.7-2.3,0.9-8.4,2.8C502,475.8,499.2,474.8,498.3,476.8z"/>
</g>
<g id="Calque_4">
	<rect x="186.3" y="834.3" class="st24" width="962.5" height="267.2"/>
</g>
</svg>
